# xmcd
#
# Track frame offsets:
#	150
#	18175
#	36080
#	54245
#	70752
#	90673
#	112911
#	130811
#	147101
#	162176
#	184100
#	202396
#	222952
#	239221
#	256556
#	284991
#
# Disc length: 3808 seconds
#
# Revision: 1
# Processed by: cddbd v1.5.2PL0 Copyright (c) Steve Scherf et al.
# Submitted via: audiograbber 1.83.01
#
DISCID=eb0ede10
DTITLE=Rascal Flatts - SC9008
DYEAR=1900
DGENRE=Country
TTITLE0=Bless The Broken Road
TTITLE1=Prayin' For Daylight
TTITLE2=These Days
TTITLE3=Stand
TTITLE4=My Wish
TTITLE5=Mayberry
TTITLE6=I'm Movin' On
TTITLE7=While You Loved Me
TTITLE8=Love You Out Loud
TTITLE9=Life Is A Highway
TTITLE10=I Melt
TTITLE11=Skin
TTITLE12=Feels Like Today
TTITLE13=Me And My Gang
TTITLE14=What Hurts The Most
TTITLE15=Data Track
EXTD=
EXTT0=
EXTT1=
EXTT2=
EXTT3=
EXTT4=
EXTT5=
EXTT6=
EXTT7=
EXTT8=
EXTT9=
EXTT10=
EXTT11=
EXTT12=
EXTT13=
EXTT14=
EXTT15=
PLAYORDER=
